<svg width="1280" height="956" viewBox="0 0 1280 956" fill="none" xmlns="http://www.w3.org/2000/svg">
<g clip-path="url(#clip0_2003_1611)">
<rect width="1280" height="956" fill="url(#paint0_linear_2003_1611)"/>
<g opacity="0.1">
<path d="M25.0596 0.274078V536.928" stroke="black" stroke-opacity="0.5"/>
<path d="M49.0296 0.274078V536.928" stroke="black" stroke-opacity="0.5"/>
<path d="M72.9996 0.274078V536.928" stroke="black" stroke-opacity="0.5"/>
<path d="M96.9697 0.274078V536.928" stroke="black" stroke-opacity="0.5"/>
<path d="M120.94 0.274078V536.928" stroke="black" stroke-opacity="0.5"/>
<path d="M144.91 0.274078V536.928" stroke="black" stroke-opacity="0.5"/>
<path d="M168.88 0.274078V536.928" stroke="black" stroke-opacity="0.5"/>
<path d="M192.85 0.274078V536.928" stroke="black" stroke-opacity="0.5"/>
<path d="M216.82 0.274078V536.928" stroke="black" stroke-opacity="0.5"/>
<path d="M240.79 0.274078V536.928" stroke="black" stroke-opacity="0.5"/>
<path d="M264.76 0.274078V536.928" stroke="black" stroke-opacity="0.5"/>
<path d="M288.73 0.274078V536.928" stroke="black" stroke-opacity="0.5"/>
<path d="M312.7 0.274078V536.928" stroke="black" stroke-opacity="0.5"/>
<path d="M336.67 0.274078V536.928" stroke="black" stroke-opacity="0.5"/>
<path d="M360.64 0.274078V536.928" stroke="black" stroke-opacity="0.5"/>
<path d="M384.61 0.274078V536.928" stroke="black" stroke-opacity="0.5"/>
<path d="M408.58 0.274078V536.928" stroke="black" stroke-opacity="0.5"/>
<path d="M432.55 0.274078V536.928" stroke="black" stroke-opacity="0.5"/>
<path d="M456.52 0.274078V536.928" stroke="black" stroke-opacity="0.5"/>
<path d="M480.49 0.274078V536.928" stroke="black" stroke-opacity="0.5"/>
<path d="M504.46 0.274078V536.928" stroke="black" stroke-opacity="0.5"/>
<path d="M528.43 0.274078V536.928" stroke="black" stroke-opacity="0.5"/>
<path d="M552.4 0.274078V536.928" stroke="black" stroke-opacity="0.5"/>
<path d="M576.37 0.274078V536.928" stroke="black" stroke-opacity="0.5"/>
<path d="M600.34 0.274078V536.928" stroke="black" stroke-opacity="0.5"/>
<path d="M624.31 0.274078V536.928" stroke="black" stroke-opacity="0.5"/>
<path d="M648.281 0.274078V536.928" stroke="black" stroke-opacity="0.5"/>
<path d="M672.251 0.274078V536.928" stroke="black" stroke-opacity="0.5"/>
<path d="M696.221 0.274078V536.928" stroke="black" stroke-opacity="0.5"/>
<path d="M720.191 0.274078V536.928" stroke="black" stroke-opacity="0.5"/>
<path d="M744.161 0.274078V536.928" stroke="black" stroke-opacity="0.5"/>
<path d="M768.131 0.274078V536.928" stroke="black" stroke-opacity="0.5"/>
<path d="M792.101 0.274078V536.928" stroke="black" stroke-opacity="0.5"/>
<path d="M25.0596 533.913V956" stroke="black" stroke-opacity="0.5"/>
<path d="M49.0296 533.913V956" stroke="black" stroke-opacity="0.5"/>
<path d="M72.9996 533.913V956" stroke="black" stroke-opacity="0.5"/>
<path d="M96.9697 533.913V956" stroke="black" stroke-opacity="0.5"/>
<path d="M120.94 533.913V956" stroke="black" stroke-opacity="0.5"/>
<path d="M144.91 533.913V956" stroke="black" stroke-opacity="0.5"/>
<path d="M168.88 533.913V956" stroke="black" stroke-opacity="0.5"/>
<path d="M192.85 533.913V956" stroke="black" stroke-opacity="0.5"/>
<path d="M216.82 533.913V956" stroke="black" stroke-opacity="0.5"/>
<path d="M240.79 533.913V956" stroke="black" stroke-opacity="0.5"/>
<path d="M264.76 533.913V956" stroke="black" stroke-opacity="0.5"/>
<path d="M288.73 533.913V956" stroke="black" stroke-opacity="0.5"/>
<path d="M312.7 533.913V956" stroke="black" stroke-opacity="0.5"/>
<path d="M336.67 533.913V956" stroke="black" stroke-opacity="0.5"/>
<path d="M360.64 533.913V956" stroke="black" stroke-opacity="0.5"/>
<path d="M384.61 533.913V956" stroke="black" stroke-opacity="0.5"/>
<path d="M408.58 533.913V956" stroke="black" stroke-opacity="0.5"/>
<path d="M432.55 533.913V956" stroke="black" stroke-opacity="0.5"/>
<path d="M456.52 533.913V956" stroke="black" stroke-opacity="0.5"/>
<path d="M480.49 533.913V956" stroke="black" stroke-opacity="0.5"/>
<path d="M504.46 533.913V956" stroke="black" stroke-opacity="0.5"/>
<path d="M528.43 533.913V956" stroke="black" stroke-opacity="0.5"/>
<path d="M552.4 533.913V956" stroke="black" stroke-opacity="0.5"/>
<path d="M576.37 533.913V956" stroke="black" stroke-opacity="0.5"/>
<path d="M600.34 533.913V956" stroke="black" stroke-opacity="0.5"/>
<path d="M624.31 533.913V956" stroke="black" stroke-opacity="0.5"/>
<path d="M648.281 533.913V956" stroke="black" stroke-opacity="0.5"/>
<path d="M672.251 533.913V956" stroke="black" stroke-opacity="0.5"/>
<path d="M696.221 533.913V956" stroke="black" stroke-opacity="0.5"/>
<path d="M720.191 533.913V956" stroke="black" stroke-opacity="0.5"/>
<path d="M744.161 533.913V956" stroke="black" stroke-opacity="0.5"/>
<path d="M768.131 533.913V956" stroke="black" stroke-opacity="0.5"/>
<path d="M792.101 533.913V956" stroke="black" stroke-opacity="0.5"/>
<path d="M792.101 0V536.654" stroke="black" stroke-opacity="0.5"/>
<path d="M816.071 0V536.654" stroke="black" stroke-opacity="0.5"/>
<path d="M840.041 0V536.654" stroke="black" stroke-opacity="0.5"/>
<path d="M864.011 0V536.654" stroke="black" stroke-opacity="0.5"/>
<path d="M887.981 0V536.654" stroke="black" stroke-opacity="0.5"/>
<path d="M911.951 0V536.654" stroke="black" stroke-opacity="0.5"/>
<path d="M935.921 0V536.654" stroke="black" stroke-opacity="0.5"/>
<path d="M959.891 0V536.654" stroke="black" stroke-opacity="0.5"/>
<path d="M983.861 0V536.654" stroke="black" stroke-opacity="0.5"/>
<path d="M1007.83 0V536.654" stroke="black" stroke-opacity="0.5"/>
<path d="M1031.8 0V536.654" stroke="black" stroke-opacity="0.5"/>
<path d="M1055.77 0V536.654" stroke="black" stroke-opacity="0.5"/>
<path d="M1079.74 0V536.654" stroke="black" stroke-opacity="0.5"/>
<path d="M1103.71 0V536.654" stroke="black" stroke-opacity="0.5"/>
<path d="M1127.68 0V536.654" stroke="black" stroke-opacity="0.5"/>
<path d="M1151.65 0V536.654" stroke="black" stroke-opacity="0.5"/>
<path d="M1175.62 0V536.654" stroke="black" stroke-opacity="0.5"/>
<path d="M1199.59 0V536.654" stroke="black" stroke-opacity="0.5"/>
<path d="M1223.56 0V536.654" stroke="black" stroke-opacity="0.5"/>
<path d="M1247.53 0V536.654" stroke="black" stroke-opacity="0.5"/>
<path d="M1271.5 0V536.654" stroke="black" stroke-opacity="0.5"/>
<path d="M792.101 533.913V956" stroke="black" stroke-opacity="0.5"/>
<path d="M816.071 533.913V956" stroke="black" stroke-opacity="0.5"/>
<path d="M840.041 533.913V956" stroke="black" stroke-opacity="0.5"/>
<path d="M864.011 533.913V956" stroke="black" stroke-opacity="0.5"/>
<path d="M887.981 533.913V956" stroke="black" stroke-opacity="0.5"/>
<path d="M911.951 533.913V956" stroke="black" stroke-opacity="0.5"/>
<path d="M935.921 533.913V956" stroke="black" stroke-opacity="0.5"/>
<path d="M959.891 533.913V956" stroke="black" stroke-opacity="0.5"/>
<path d="M983.861 533.913V956" stroke="black" stroke-opacity="0.5"/>
<path d="M1007.83 533.913V956" stroke="black" stroke-opacity="0.5"/>
<path d="M1031.8 533.913V956" stroke="black" stroke-opacity="0.5"/>
<path d="M1055.77 533.913V956" stroke="black" stroke-opacity="0.5"/>
<path d="M1079.74 533.913V956" stroke="black" stroke-opacity="0.5"/>
<path d="M1103.71 533.913V956" stroke="black" stroke-opacity="0.5"/>
<path d="M1127.68 533.913V956" stroke="black" stroke-opacity="0.5"/>
<path d="M1151.65 533.913V956" stroke="black" stroke-opacity="0.5"/>
<path d="M1175.62 533.913V956" stroke="black" stroke-opacity="0.5"/>
<path d="M1199.59 533.913V956" stroke="black" stroke-opacity="0.5"/>
<path d="M1223.56 533.913V956" stroke="black" stroke-opacity="0.5"/>
<path d="M1247.53 533.913V956" stroke="black" stroke-opacity="0.5"/>
<path d="M1271.5 533.913V956" stroke="black" stroke-opacity="0.5"/>
<path d="M0 955.726H426.667" stroke="black" stroke-opacity="0.5"/>
<path d="M0 925.577H426.667" stroke="black" stroke-opacity="0.5"/>
<path d="M0 895.428H426.667" stroke="black" stroke-opacity="0.5"/>
<path d="M0 865.279H426.667" stroke="black" stroke-opacity="0.5"/>
<path d="M0 835.13H426.667" stroke="black" stroke-opacity="0.5"/>
<path d="M0 804.981H426.667" stroke="black" stroke-opacity="0.5"/>
<path d="M0 774.831H426.667" stroke="black" stroke-opacity="0.5"/>
<path d="M0 744.682H426.667" stroke="black" stroke-opacity="0.5"/>
<path d="M0 714.533H426.667" stroke="black" stroke-opacity="0.5"/>
<path d="M0 684.384H426.667" stroke="black" stroke-opacity="0.5"/>
<path d="M0 654.235H426.667" stroke="black" stroke-opacity="0.5"/>
<path d="M0 624.086H426.667" stroke="black" stroke-opacity="0.5"/>
<path d="M0 593.937H426.667" stroke="black" stroke-opacity="0.5"/>
<path d="M0 563.788H426.667" stroke="black" stroke-opacity="0.5"/>
<path d="M0 533.639H426.667" stroke="black" stroke-opacity="0.5"/>
<path d="M0 503.49H426.667" stroke="black" stroke-opacity="0.5"/>
<path d="M0 473.341H426.667" stroke="black" stroke-opacity="0.5"/>
<path d="M0 443.191H426.667" stroke="black" stroke-opacity="0.5"/>
<path d="M0 413.042H426.667" stroke="black" stroke-opacity="0.5"/>
<path d="M0 382.893H426.667" stroke="black" stroke-opacity="0.5"/>
<path d="M0 352.744H426.667" stroke="black" stroke-opacity="0.5"/>
<path d="M0 322.595H426.667" stroke="black" stroke-opacity="0.5"/>
<path d="M0 292.446H426.667" stroke="black" stroke-opacity="0.5"/>
<path d="M0 262.297H426.667" stroke="black" stroke-opacity="0.5"/>
<path d="M0 232.148H426.667" stroke="black" stroke-opacity="0.5"/>
<path d="M0 201.999H426.667" stroke="black" stroke-opacity="0.5"/>
<path d="M0 171.85H426.667" stroke="black" stroke-opacity="0.5"/>
<path d="M0 141.701H426.667" stroke="black" stroke-opacity="0.5"/>
<path d="M0 111.552H426.667" stroke="black" stroke-opacity="0.5"/>
<path d="M0 81.4025H426.667" stroke="black" stroke-opacity="0.5"/>
<path d="M0 51.2535L426.667 51.2534" stroke="black" stroke-opacity="0.5"/>
<path d="M0 21.1044L426.667 21.1043" stroke="black" stroke-opacity="0.5"/>
<path d="M426.667 955.726H853.333" stroke="black" stroke-opacity="0.5"/>
<path d="M426.667 925.577H853.333" stroke="black" stroke-opacity="0.5"/>
<path d="M426.667 895.428H853.333" stroke="black" stroke-opacity="0.5"/>
<path d="M426.667 865.279H853.333" stroke="black" stroke-opacity="0.5"/>
<path d="M426.667 835.13H853.333" stroke="black" stroke-opacity="0.5"/>
<path d="M426.667 804.981H853.333" stroke="black" stroke-opacity="0.5"/>
<path d="M426.667 774.831H853.333" stroke="black" stroke-opacity="0.5"/>
<path d="M426.667 744.682H853.333" stroke="black" stroke-opacity="0.5"/>
<path d="M426.667 714.533H853.333" stroke="black" stroke-opacity="0.5"/>
<path d="M426.667 684.384H853.333" stroke="black" stroke-opacity="0.5"/>
<path d="M426.667 654.235H853.333" stroke="black" stroke-opacity="0.5"/>
<path d="M426.667 624.086H853.333" stroke="black" stroke-opacity="0.5"/>
<path d="M426.667 593.937H853.333" stroke="black" stroke-opacity="0.5"/>
<path d="M426.667 563.788H853.333" stroke="black" stroke-opacity="0.5"/>
<path d="M426.667 533.639H853.333" stroke="black" stroke-opacity="0.5"/>
<path d="M426.667 503.49H853.333" stroke="black" stroke-opacity="0.5"/>
<path d="M426.667 473.341H853.333" stroke="black" stroke-opacity="0.5"/>
<path d="M426.667 443.191H853.333" stroke="black" stroke-opacity="0.5"/>
<path d="M426.667 413.042H853.333" stroke="black" stroke-opacity="0.5"/>
<path d="M426.667 382.893H853.333" stroke="black" stroke-opacity="0.5"/>
<path d="M426.667 352.744H853.333" stroke="black" stroke-opacity="0.5"/>
<path d="M426.667 322.595H853.333" stroke="black" stroke-opacity="0.5"/>
<path d="M426.667 292.446H853.333" stroke="black" stroke-opacity="0.5"/>
<path d="M426.667 262.297H853.333" stroke="black" stroke-opacity="0.5"/>
<path d="M426.667 232.148H853.333" stroke="black" stroke-opacity="0.5"/>
<path d="M426.667 201.999H853.333" stroke="black" stroke-opacity="0.5"/>
<path d="M426.667 171.85H853.333" stroke="black" stroke-opacity="0.5"/>
<path d="M426.667 141.701H853.333" stroke="black" stroke-opacity="0.5"/>
<path d="M426.667 111.552H853.333" stroke="black" stroke-opacity="0.5"/>
<path d="M426.667 81.4025H853.333" stroke="black" stroke-opacity="0.5"/>
<path d="M426.667 51.2535L853.333 51.2534" stroke="black" stroke-opacity="0.5"/>
<path d="M426.667 21.1044L853.333 21.1043" stroke="black" stroke-opacity="0.5"/>
<path d="M853.333 955.726H1280" stroke="black" stroke-opacity="0.5"/>
<path d="M853.333 925.577H1280" stroke="black" stroke-opacity="0.5"/>
<path d="M853.333 895.428H1280" stroke="black" stroke-opacity="0.5"/>
<path d="M853.333 865.279H1280" stroke="black" stroke-opacity="0.5"/>
<path d="M853.333 835.13H1280" stroke="black" stroke-opacity="0.5"/>
<path d="M853.333 804.981H1280" stroke="black" stroke-opacity="0.5"/>
<path d="M853.333 774.831H1280" stroke="black" stroke-opacity="0.5"/>
<path d="M853.333 744.682H1280" stroke="black" stroke-opacity="0.5"/>
<path d="M853.333 714.533H1280" stroke="black" stroke-opacity="0.5"/>
<path d="M853.333 684.384H1280" stroke="black" stroke-opacity="0.5"/>
<path d="M853.333 654.235H1280" stroke="black" stroke-opacity="0.5"/>
<path d="M853.333 624.086H1280" stroke="black" stroke-opacity="0.5"/>
<path d="M853.333 593.937H1280" stroke="black" stroke-opacity="0.5"/>
<path d="M853.333 563.788H1280" stroke="black" stroke-opacity="0.5"/>
<path d="M853.333 533.639H1280" stroke="black" stroke-opacity="0.5"/>
<path d="M853.333 503.49H1280" stroke="black" stroke-opacity="0.5"/>
<path d="M853.333 473.341H1280" stroke="black" stroke-opacity="0.5"/>
<path d="M853.333 443.191H1280" stroke="black" stroke-opacity="0.5"/>
<path d="M853.333 413.042H1280" stroke="black" stroke-opacity="0.5"/>
<path d="M853.333 382.893H1280" stroke="black" stroke-opacity="0.5"/>
<path d="M853.333 352.744H1280" stroke="black" stroke-opacity="0.5"/>
<path d="M853.333 322.595H1280" stroke="black" stroke-opacity="0.5"/>
<path d="M853.333 292.446H1280" stroke="black" stroke-opacity="0.5"/>
<path d="M853.333 262.297H1280" stroke="black" stroke-opacity="0.5"/>
<path d="M853.333 232.148H1280" stroke="black" stroke-opacity="0.5"/>
<path d="M853.333 201.999H1280" stroke="black" stroke-opacity="0.5"/>
<path d="M853.333 171.85H1280" stroke="black" stroke-opacity="0.5"/>
<path d="M853.333 141.701H1280" stroke="black" stroke-opacity="0.5"/>
<path d="M853.333 111.552H1280" stroke="black" stroke-opacity="0.5"/>
<path d="M853.333 81.4025H1280" stroke="black" stroke-opacity="0.5"/>
<path d="M853.333 51.2535L1280 51.2534" stroke="black" stroke-opacity="0.5"/>
<path d="M853.333 21.1044L1280 21.1043" stroke="black" stroke-opacity="0.5"/>
</g>
<path d="M24.8417 47.6904V54.2684" stroke="black" stroke-opacity="0.15" stroke-width="2"/>
<path d="M27.6434 50.9794H22.2268" stroke="black" stroke-opacity="0.15" stroke-width="2"/>
<path d="M24.8417 168.287V174.865" stroke="black" stroke-opacity="0.15" stroke-width="2"/>
<path d="M27.6434 171.576H22.2268" stroke="black" stroke-opacity="0.15" stroke-width="2"/>
<path d="M24.8417 288.883V295.461" stroke="black" stroke-opacity="0.15" stroke-width="2"/>
<path d="M27.6434 292.172H22.2268" stroke="black" stroke-opacity="0.15" stroke-width="2"/>
<path d="M24.8417 409.479V416.057" stroke="black" stroke-opacity="0.15" stroke-width="2"/>
<path d="M27.6434 412.768H22.2268" stroke="black" stroke-opacity="0.15" stroke-width="2"/>
<path d="M24.8417 530.076V536.654" stroke="black" stroke-opacity="0.15" stroke-width="2"/>
<path d="M27.6434 533.365H22.2268" stroke="black" stroke-opacity="0.15" stroke-width="2"/>
<path d="M24.8417 650.672V657.25" stroke="black" stroke-opacity="0.15" stroke-width="2"/>
<path d="M27.6434 653.961H22.2268" stroke="black" stroke-opacity="0.15" stroke-width="2"/>
<path d="M24.8417 771.268V777.846" stroke="black" stroke-opacity="0.15" stroke-width="2"/>
<path d="M27.6434 774.557H22.2268" stroke="black" stroke-opacity="0.15" stroke-width="2"/>
<path d="M24.8417 891.865V898.443" stroke="black" stroke-opacity="0.15" stroke-width="2"/>
<path d="M27.6434 895.154H22.2268" stroke="black" stroke-opacity="0.15" stroke-width="2"/>
<path d="M120.722 47.6904V54.2684" stroke="black" stroke-opacity="0.15" stroke-width="2"/>
<path d="M123.524 50.9794H118.107" stroke="black" stroke-opacity="0.15" stroke-width="2"/>
<path d="M120.722 168.287V174.865" stroke="black" stroke-opacity="0.15" stroke-width="2"/>
<path d="M123.524 171.576H118.107" stroke="black" stroke-opacity="0.15" stroke-width="2"/>
<path d="M120.722 288.883V295.461" stroke="black" stroke-opacity="0.15" stroke-width="2"/>
<path d="M123.524 292.172H118.107" stroke="black" stroke-opacity="0.15" stroke-width="2"/>
<path d="M120.722 409.479V416.057" stroke="black" stroke-opacity="0.15" stroke-width="2"/>
<path d="M123.524 412.768H118.107" stroke="black" stroke-opacity="0.15" stroke-width="2"/>
<path d="M120.722 530.076V536.654" stroke="black" stroke-opacity="0.15" stroke-width="2"/>
<path d="M123.524 533.365H118.107" stroke="black" stroke-opacity="0.15" stroke-width="2"/>
<path d="M120.722 650.672V657.25" stroke="black" stroke-opacity="0.15" stroke-width="2"/>
<path d="M123.524 653.961H118.107" stroke="black" stroke-opacity="0.15" stroke-width="2"/>
<path d="M120.722 771.268V777.846" stroke="black" stroke-opacity="0.15" stroke-width="2"/>
<path d="M123.524 774.557H118.107" stroke="black" stroke-opacity="0.15" stroke-width="2"/>
<path d="M120.722 891.865V898.443" stroke="black" stroke-opacity="0.15" stroke-width="2"/>
<path d="M123.524 895.154H118.107" stroke="black" stroke-opacity="0.15" stroke-width="2"/>
<path d="M216.602 47.6904V54.2684" stroke="black" stroke-opacity="0.15" stroke-width="2"/>
<path d="M219.404 50.9794H213.987" stroke="black" stroke-opacity="0.15" stroke-width="2"/>
<path d="M216.602 168.287V174.865" stroke="black" stroke-opacity="0.15" stroke-width="2"/>
<path d="M219.404 171.576H213.987" stroke="black" stroke-opacity="0.15" stroke-width="2"/>
<path d="M216.602 288.883V295.461" stroke="black" stroke-opacity="0.15" stroke-width="2"/>
<path d="M219.404 292.172H213.987" stroke="black" stroke-opacity="0.15" stroke-width="2"/>
<path d="M216.602 409.479V416.057" stroke="black" stroke-opacity="0.15" stroke-width="2"/>
<path d="M219.404 412.768H213.987" stroke="black" stroke-opacity="0.15" stroke-width="2"/>
<path d="M216.602 530.076V536.654" stroke="black" stroke-opacity="0.15" stroke-width="2"/>
<path d="M219.404 533.365H213.987" stroke="black" stroke-opacity="0.15" stroke-width="2"/>
<path d="M216.602 650.672V657.25" stroke="black" stroke-opacity="0.15" stroke-width="2"/>
<path d="M219.404 653.961H213.987" stroke="black" stroke-opacity="0.15" stroke-width="2"/>
<path d="M216.602 771.268V777.846" stroke="black" stroke-opacity="0.15" stroke-width="2"/>
<path d="M219.404 774.557H213.987" stroke="black" stroke-opacity="0.15" stroke-width="2"/>
<path d="M216.602 891.865V898.443" stroke="black" stroke-opacity="0.15" stroke-width="2"/>
<path d="M219.404 895.154H213.987" stroke="black" stroke-opacity="0.15" stroke-width="2"/>
<path d="M312.482 47.6904V54.2684" stroke="black" stroke-opacity="0.15" stroke-width="2"/>
<path d="M315.284 50.9794H309.867" stroke="black" stroke-opacity="0.15" stroke-width="2"/>
<path d="M312.482 168.287V174.865" stroke="black" stroke-opacity="0.15" stroke-width="2"/>
<path d="M315.284 171.576H309.867" stroke="black" stroke-opacity="0.15" stroke-width="2"/>
<path d="M312.482 288.883V295.461" stroke="black" stroke-opacity="0.15" stroke-width="2"/>
<path d="M315.284 292.172H309.867" stroke="black" stroke-opacity="0.15" stroke-width="2"/>
<path d="M312.482 409.479V416.057" stroke="black" stroke-opacity="0.15" stroke-width="2"/>
<path d="M315.284 412.768H309.867" stroke="black" stroke-opacity="0.15" stroke-width="2"/>
<path d="M312.482 530.076V536.654" stroke="black" stroke-opacity="0.15" stroke-width="2"/>
<path d="M315.284 533.365H309.867" stroke="black" stroke-opacity="0.15" stroke-width="2"/>
<path d="M312.482 650.672V657.25" stroke="black" stroke-opacity="0.15" stroke-width="2"/>
<path d="M315.284 653.961H309.867" stroke="black" stroke-opacity="0.15" stroke-width="2"/>
<path d="M312.482 771.268V777.846" stroke="black" stroke-opacity="0.15" stroke-width="2"/>
<path d="M315.284 774.557H309.867" stroke="black" stroke-opacity="0.15" stroke-width="2"/>
<path d="M312.482 891.865V898.443" stroke="black" stroke-opacity="0.15" stroke-width="2"/>
<path d="M315.284 895.154H309.867" stroke="black" stroke-opacity="0.15" stroke-width="2"/>
<path d="M408.362 47.6904V54.2684" stroke="black" stroke-opacity="0.15" stroke-width="2"/>
<path d="M411.164 50.9794H405.747" stroke="black" stroke-opacity="0.15" stroke-width="2"/>
<path d="M408.362 168.287V174.865" stroke="black" stroke-opacity="0.15" stroke-width="2"/>
<path d="M411.164 171.576H405.747" stroke="black" stroke-opacity="0.15" stroke-width="2"/>
<path d="M408.362 288.883V295.461" stroke="black" stroke-opacity="0.15" stroke-width="2"/>
<path d="M411.164 292.172H405.747" stroke="black" stroke-opacity="0.15" stroke-width="2"/>
<path d="M408.362 409.479V416.057" stroke="black" stroke-opacity="0.15" stroke-width="2"/>
<path d="M411.164 412.768H405.747" stroke="black" stroke-opacity="0.15" stroke-width="2"/>
<path d="M408.362 530.076V536.654" stroke="black" stroke-opacity="0.15" stroke-width="2"/>
<path d="M411.164 533.365H405.747" stroke="black" stroke-opacity="0.15" stroke-width="2"/>
<path d="M408.362 650.672V657.25" stroke="black" stroke-opacity="0.15" stroke-width="2"/>
<path d="M411.164 653.961H405.747" stroke="black" stroke-opacity="0.15" stroke-width="2"/>
<path d="M408.362 771.268V777.846" stroke="black" stroke-opacity="0.15" stroke-width="2"/>
<path d="M411.164 774.557H405.747" stroke="black" stroke-opacity="0.15" stroke-width="2"/>
<path d="M408.362 891.865V898.443" stroke="black" stroke-opacity="0.15" stroke-width="2"/>
<path d="M411.164 895.154H405.747" stroke="black" stroke-opacity="0.15" stroke-width="2"/>
<path d="M504.242 47.6904V54.2684" stroke="black" stroke-opacity="0.15" stroke-width="2"/>
<path d="M507.045 50.9794H501.628" stroke="black" stroke-opacity="0.15" stroke-width="2"/>
<path d="M504.242 168.287V174.865" stroke="black" stroke-opacity="0.15" stroke-width="2"/>
<path d="M507.045 171.576H501.628" stroke="black" stroke-opacity="0.15" stroke-width="2"/>
<path d="M504.242 288.883V295.461" stroke="black" stroke-opacity="0.15" stroke-width="2"/>
<path d="M507.045 292.172H501.628" stroke="black" stroke-opacity="0.15" stroke-width="2"/>
<path d="M504.242 409.479V416.057" stroke="black" stroke-opacity="0.15" stroke-width="2"/>
<path d="M507.045 412.768H501.628" stroke="black" stroke-opacity="0.15" stroke-width="2"/>
<path d="M504.242 530.076V536.654" stroke="black" stroke-opacity="0.15" stroke-width="2"/>
<path d="M507.045 533.365H501.628" stroke="black" stroke-opacity="0.15" stroke-width="2"/>
<path d="M504.242 650.672V657.25" stroke="black" stroke-opacity="0.15" stroke-width="2"/>
<path d="M507.045 653.961H501.628" stroke="black" stroke-opacity="0.15" stroke-width="2"/>
<path d="M504.242 771.268V777.846" stroke="black" stroke-opacity="0.15" stroke-width="2"/>
<path d="M507.045 774.557H501.628" stroke="black" stroke-opacity="0.15" stroke-width="2"/>
<path d="M504.242 891.865V898.443" stroke="black" stroke-opacity="0.15" stroke-width="2"/>
<path d="M507.045 895.154H501.628" stroke="black" stroke-opacity="0.15" stroke-width="2"/>
<path d="M600.123 47.6904V54.2684" stroke="black" stroke-opacity="0.15" stroke-width="2"/>
<path d="M602.925 50.9794H597.508" stroke="black" stroke-opacity="0.15" stroke-width="2"/>
<path d="M600.123 168.287V174.865" stroke="black" stroke-opacity="0.15" stroke-width="2"/>
<path d="M602.925 171.576H597.508" stroke="black" stroke-opacity="0.15" stroke-width="2"/>
<path d="M600.123 288.883V295.461" stroke="black" stroke-opacity="0.15" stroke-width="2"/>
<path d="M602.925 292.172H597.508" stroke="black" stroke-opacity="0.15" stroke-width="2"/>
<path d="M600.123 409.479V416.057" stroke="black" stroke-opacity="0.15" stroke-width="2"/>
<path d="M602.925 412.768H597.508" stroke="black" stroke-opacity="0.15" stroke-width="2"/>
<path d="M600.123 530.076V536.654" stroke="black" stroke-opacity="0.15" stroke-width="2"/>
<path d="M602.925 533.365H597.508" stroke="black" stroke-opacity="0.15" stroke-width="2"/>
<path d="M600.123 650.672V657.25" stroke="black" stroke-opacity="0.15" stroke-width="2"/>
<path d="M602.925 653.961H597.508" stroke="black" stroke-opacity="0.15" stroke-width="2"/>
<path d="M600.123 771.268V777.846" stroke="black" stroke-opacity="0.15" stroke-width="2"/>
<path d="M602.925 774.557H597.508" stroke="black" stroke-opacity="0.15" stroke-width="2"/>
<path d="M600.123 891.865V898.443" stroke="black" stroke-opacity="0.15" stroke-width="2"/>
<path d="M602.925 895.154H597.508" stroke="black" stroke-opacity="0.15" stroke-width="2"/>
<path d="M696.003 47.6904V54.2684" stroke="black" stroke-opacity="0.15" stroke-width="2"/>
<path d="M698.805 50.9794H693.388" stroke="black" stroke-opacity="0.15" stroke-width="2"/>
<path d="M696.003 168.287V174.865" stroke="black" stroke-opacity="0.15" stroke-width="2"/>
<path d="M698.805 171.576H693.388" stroke="black" stroke-opacity="0.15" stroke-width="2"/>
<path d="M696.003 288.883V295.461" stroke="black" stroke-opacity="0.15" stroke-width="2"/>
<path d="M698.805 292.172H693.388" stroke="black" stroke-opacity="0.15" stroke-width="2"/>
<path d="M696.003 409.479V416.057" stroke="black" stroke-opacity="0.15" stroke-width="2"/>
<path d="M698.805 412.768H693.388" stroke="black" stroke-opacity="0.15" stroke-width="2"/>
<path d="M696.003 530.076V536.654" stroke="black" stroke-opacity="0.15" stroke-width="2"/>
<path d="M698.805 533.365H693.388" stroke="black" stroke-opacity="0.15" stroke-width="2"/>
<path d="M696.003 650.672V657.25" stroke="black" stroke-opacity="0.15" stroke-width="2"/>
<path d="M698.805 653.961H693.388" stroke="black" stroke-opacity="0.15" stroke-width="2"/>
<path d="M696.003 771.268V777.846" stroke="black" stroke-opacity="0.15" stroke-width="2"/>
<path d="M698.805 774.557H693.388" stroke="black" stroke-opacity="0.15" stroke-width="2"/>
<path d="M696.003 891.865V898.443" stroke="black" stroke-opacity="0.15" stroke-width="2"/>
<path d="M698.805 895.154H693.388" stroke="black" stroke-opacity="0.15" stroke-width="2"/>
<path d="M791.883 47.6904V54.2684" stroke="black" stroke-opacity="0.15" stroke-width="2"/>
<path d="M794.685 50.9794H789.268" stroke="black" stroke-opacity="0.15" stroke-width="2"/>
<path d="M791.883 168.287V174.865" stroke="black" stroke-opacity="0.15" stroke-width="2"/>
<path d="M794.685 171.576H789.268" stroke="black" stroke-opacity="0.15" stroke-width="2"/>
<path d="M791.883 288.883V295.461" stroke="black" stroke-opacity="0.15" stroke-width="2"/>
<path d="M794.685 292.172H789.268" stroke="black" stroke-opacity="0.15" stroke-width="2"/>
<path d="M791.883 409.479V416.057" stroke="black" stroke-opacity="0.15" stroke-width="2"/>
<path d="M794.685 412.768H789.268" stroke="black" stroke-opacity="0.15" stroke-width="2"/>
<path d="M791.883 530.076V536.654" stroke="black" stroke-opacity="0.15" stroke-width="2"/>
<path d="M794.685 533.365H789.268" stroke="black" stroke-opacity="0.15" stroke-width="2"/>
<path d="M791.883 650.672V657.25" stroke="black" stroke-opacity="0.15" stroke-width="2"/>
<path d="M794.685 653.961H789.268" stroke="black" stroke-opacity="0.15" stroke-width="2"/>
<path d="M791.883 771.268V777.846" stroke="black" stroke-opacity="0.15" stroke-width="2"/>
<path d="M794.685 774.557H789.268" stroke="black" stroke-opacity="0.15" stroke-width="2"/>
<path d="M791.883 891.865V898.443" stroke="black" stroke-opacity="0.15" stroke-width="2"/>
<path d="M794.685 895.154H789.268" stroke="black" stroke-opacity="0.15" stroke-width="2"/>
<path d="M887.763 47.6904V54.2684" stroke="black" stroke-opacity="0.15" stroke-width="2"/>
<path d="M890.565 50.9794H885.148" stroke="black" stroke-opacity="0.15" stroke-width="2"/>
<path d="M887.763 168.287V174.865" stroke="black" stroke-opacity="0.15" stroke-width="2"/>
<path d="M890.565 171.576H885.148" stroke="black" stroke-opacity="0.15" stroke-width="2"/>
<path d="M887.763 288.883V295.461" stroke="black" stroke-opacity="0.15" stroke-width="2"/>
<path d="M890.565 292.172H885.148" stroke="black" stroke-opacity="0.15" stroke-width="2"/>
<path d="M887.763 409.479V416.057" stroke="black" stroke-opacity="0.15" stroke-width="2"/>
<path d="M890.565 412.768H885.148" stroke="black" stroke-opacity="0.15" stroke-width="2"/>
<path d="M887.763 530.076V536.654" stroke="black" stroke-opacity="0.15" stroke-width="2"/>
<path d="M890.565 533.365H885.148" stroke="black" stroke-opacity="0.15" stroke-width="2"/>
<path d="M887.763 650.672V657.25" stroke="black" stroke-opacity="0.15" stroke-width="2"/>
<path d="M890.565 653.961H885.148" stroke="black" stroke-opacity="0.15" stroke-width="2"/>
<path d="M887.763 771.268V777.846" stroke="black" stroke-opacity="0.15" stroke-width="2"/>
<path d="M890.565 774.557H885.148" stroke="black" stroke-opacity="0.15" stroke-width="2"/>
<path d="M887.763 891.865V898.443" stroke="black" stroke-opacity="0.15" stroke-width="2"/>
<path d="M890.565 895.154H885.148" stroke="black" stroke-opacity="0.15" stroke-width="2"/>
<path d="M983.643 47.6904V54.2684" stroke="black" stroke-opacity="0.15" stroke-width="2"/>
<path d="M986.445 50.9794H981.028" stroke="black" stroke-opacity="0.15" stroke-width="2"/>
<path d="M983.643 168.287V174.865" stroke="black" stroke-opacity="0.15" stroke-width="2"/>
<path d="M986.445 171.576H981.028" stroke="black" stroke-opacity="0.15" stroke-width="2"/>
<path d="M983.643 288.883V295.461" stroke="black" stroke-opacity="0.15" stroke-width="2"/>
<path d="M986.445 292.172H981.028" stroke="black" stroke-opacity="0.15" stroke-width="2"/>
<path d="M983.643 409.479V416.057" stroke="black" stroke-opacity="0.15" stroke-width="2"/>
<path d="M986.445 412.768H981.028" stroke="black" stroke-opacity="0.15" stroke-width="2"/>
<path d="M983.643 530.076V536.654" stroke="black" stroke-opacity="0.15" stroke-width="2"/>
<path d="M986.445 533.365H981.028" stroke="black" stroke-opacity="0.15" stroke-width="2"/>
<path d="M983.643 650.672V657.25" stroke="black" stroke-opacity="0.15" stroke-width="2"/>
<path d="M986.445 653.961H981.028" stroke="black" stroke-opacity="0.15" stroke-width="2"/>
<path d="M983.643 771.268V777.846" stroke="black" stroke-opacity="0.15" stroke-width="2"/>
<path d="M986.445 774.557H981.028" stroke="black" stroke-opacity="0.15" stroke-width="2"/>
<path d="M983.643 891.865V898.443" stroke="black" stroke-opacity="0.15" stroke-width="2"/>
<path d="M986.445 895.154H981.028" stroke="black" stroke-opacity="0.15" stroke-width="2"/>
<path d="M1079.52 47.6904V54.2684" stroke="black" stroke-opacity="0.15" stroke-width="2"/>
<path d="M1082.33 50.9794H1076.91" stroke="black" stroke-opacity="0.15" stroke-width="2"/>
<path d="M1079.52 168.287V174.865" stroke="black" stroke-opacity="0.15" stroke-width="2"/>
<path d="M1082.33 171.576H1076.91" stroke="black" stroke-opacity="0.15" stroke-width="2"/>
<path d="M1079.52 288.883V295.461" stroke="black" stroke-opacity="0.15" stroke-width="2"/>
<path d="M1082.33 292.172H1076.91" stroke="black" stroke-opacity="0.15" stroke-width="2"/>
<path d="M1079.52 409.479V416.057" stroke="black" stroke-opacity="0.15" stroke-width="2"/>
<path d="M1082.33 412.768H1076.91" stroke="black" stroke-opacity="0.15" stroke-width="2"/>
<path d="M1079.52 530.076V536.654" stroke="black" stroke-opacity="0.15" stroke-width="2"/>
<path d="M1082.33 533.365H1076.91" stroke="black" stroke-opacity="0.15" stroke-width="2"/>
<path d="M1079.52 650.672V657.25" stroke="black" stroke-opacity="0.15" stroke-width="2"/>
<path d="M1082.33 653.961H1076.91" stroke="black" stroke-opacity="0.15" stroke-width="2"/>
<path d="M1079.52 771.268V777.846" stroke="black" stroke-opacity="0.15" stroke-width="2"/>
<path d="M1082.33 774.557H1076.91" stroke="black" stroke-opacity="0.15" stroke-width="2"/>
<path d="M1079.52 891.865V898.443" stroke="black" stroke-opacity="0.15" stroke-width="2"/>
<path d="M1082.33 895.154H1076.91" stroke="black" stroke-opacity="0.15" stroke-width="2"/>
<path d="M1175.4 47.6904V54.2684" stroke="black" stroke-opacity="0.15" stroke-width="2"/>
<path d="M1178.21 50.9794H1172.79" stroke="black" stroke-opacity="0.15" stroke-width="2"/>
<path d="M1175.4 168.287V174.865" stroke="black" stroke-opacity="0.15" stroke-width="2"/>
<path d="M1178.21 171.576H1172.79" stroke="black" stroke-opacity="0.15" stroke-width="2"/>
<path d="M1175.4 288.883V295.461" stroke="black" stroke-opacity="0.15" stroke-width="2"/>
<path d="M1178.21 292.172H1172.79" stroke="black" stroke-opacity="0.15" stroke-width="2"/>
<path d="M1175.4 409.479V416.057" stroke="black" stroke-opacity="0.15" stroke-width="2"/>
<path d="M1178.21 412.768H1172.79" stroke="black" stroke-opacity="0.15" stroke-width="2"/>
<path d="M1175.4 530.076V536.654" stroke="black" stroke-opacity="0.15" stroke-width="2"/>
<path d="M1178.21 533.365H1172.79" stroke="black" stroke-opacity="0.15" stroke-width="2"/>
<path d="M1175.4 650.672V657.25" stroke="black" stroke-opacity="0.15" stroke-width="2"/>
<path d="M1178.21 653.961H1172.79" stroke="black" stroke-opacity="0.15" stroke-width="2"/>
<path d="M1175.4 771.268V777.846" stroke="black" stroke-opacity="0.15" stroke-width="2"/>
<path d="M1178.21 774.557H1172.79" stroke="black" stroke-opacity="0.15" stroke-width="2"/>
<path d="M1175.4 891.865V898.443" stroke="black" stroke-opacity="0.15" stroke-width="2"/>
<path d="M1178.21 895.154H1172.79" stroke="black" stroke-opacity="0.15" stroke-width="2"/>
<path d="M1271.28 47.6904V54.2684" stroke="black" stroke-opacity="0.15" stroke-width="2"/>
<path d="M1274.09 50.9794H1268.67" stroke="black" stroke-opacity="0.15" stroke-width="2"/>
<path d="M1271.28 168.287V174.865" stroke="black" stroke-opacity="0.15" stroke-width="2"/>
<path d="M1274.09 171.576H1268.67" stroke="black" stroke-opacity="0.15" stroke-width="2"/>
<path d="M1271.28 288.883V295.461" stroke="black" stroke-opacity="0.15" stroke-width="2"/>
<path d="M1274.09 292.172H1268.67" stroke="black" stroke-opacity="0.15" stroke-width="2"/>
<path d="M1271.28 409.479V416.057" stroke="black" stroke-opacity="0.15" stroke-width="2"/>
<path d="M1274.09 412.768H1268.67" stroke="black" stroke-opacity="0.15" stroke-width="2"/>
<path d="M1271.28 530.076V536.654" stroke="black" stroke-opacity="0.15" stroke-width="2"/>
<path d="M1274.09 533.365H1268.67" stroke="black" stroke-opacity="0.15" stroke-width="2"/>
<path d="M1271.28 650.672V657.25" stroke="black" stroke-opacity="0.15" stroke-width="2"/>
<path d="M1274.09 653.961H1268.67" stroke="black" stroke-opacity="0.15" stroke-width="2"/>
<path d="M1271.28 771.268V777.846" stroke="black" stroke-opacity="0.15" stroke-width="2"/>
<path d="M1274.09 774.557H1268.67" stroke="black" stroke-opacity="0.15" stroke-width="2"/>
<path d="M1271.28 891.865V898.443" stroke="black" stroke-opacity="0.15" stroke-width="2"/>
<path d="M1274.09 895.154H1268.67" stroke="black" stroke-opacity="0.15" stroke-width="2"/>
<path d="M1241.5 912.503L1250.44 901.362C1250.86 900.835 1251.38 900.559 1252.01 900.534C1252.65 900.51 1253.19 900.786 1253.65 901.362C1254.07 901.89 1254.28 902.56 1254.28 903.375C1254.28 904.19 1254.07 904.86 1253.65 905.387L1243.1 918.612C1242.87 918.9 1242.63 919.104 1242.36 919.225C1242.09 919.346 1241.81 919.405 1241.5 919.403C1241.19 919.401 1240.91 919.342 1240.64 919.225C1240.37 919.108 1240.12 918.904 1239.9 918.612L1229.35 905.387C1228.93 904.86 1228.71 904.202 1228.69 903.412C1228.67 902.623 1228.89 901.939 1229.35 901.362C1229.77 900.835 1230.31 900.572 1230.96 900.572C1231.61 900.572 1232.14 900.835 1232.56 901.362L1241.5 912.503ZM1241.5 895.253L1250.44 884.112C1250.86 883.585 1251.38 883.31 1252.01 883.287C1252.65 883.264 1253.19 883.539 1253.65 884.112C1254.07 884.64 1254.28 885.31 1254.28 886.125C1254.28 886.94 1254.07 887.61 1253.65 888.137L1243.1 901.362C1242.87 901.65 1242.63 901.854 1242.36 901.975C1242.09 902.096 1241.81 902.155 1241.5 902.153C1241.19 902.151 1240.91 902.092 1240.64 901.975C1240.37 901.858 1240.12 901.654 1239.9 901.362L1229.35 888.137C1228.93 887.61 1228.71 886.952 1228.69 886.162C1228.67 885.373 1228.89 884.689 1229.35 884.112C1229.77 883.585 1230.31 883.322 1230.96 883.322C1231.61 883.322 1232.14 883.585 1232.56 884.112L1241.5 895.253Z" fill="white" fill-opacity="0.5"/>
</g>
<defs>
<linearGradient id="paint0_linear_2003_1611" x1="1.90735e-05" y1="956" x2="1438.51" y2="456.266" gradientUnits="userSpaceOnUse">
<stop stop-color="#00BA8B"/>
<stop offset="1" stop-color="#003F6D"/>
</linearGradient>
<clipPath id="clip0_2003_1611">
<rect width="1280" height="956" fill="white"/>
</clipPath>
</defs>
</svg>
