<svg width="360" height="304" viewBox="0 0 360 304" fill="none" xmlns="http://www.w3.org/2000/svg">
<g clip-path="url(#clip0_2029_1834)">
<g opacity="0.1">
<path d="M7.048 0.0964355V188.711" stroke="black" stroke-opacity="0.5"/>
<path d="M13.7896 0.0964355V188.711" stroke="black" stroke-opacity="0.5"/>
<path d="M20.5312 0.0964355V188.711" stroke="black" stroke-opacity="0.5"/>
<path d="M27.2727 0.0964355V188.711" stroke="black" stroke-opacity="0.5"/>
<path d="M34.0143 0.0964355V188.711" stroke="black" stroke-opacity="0.5"/>
<path d="M40.7559 0.0964355V188.711" stroke="black" stroke-opacity="0.5"/>
<path d="M47.4974 0.0964355V188.711" stroke="black" stroke-opacity="0.5"/>
<path d="M54.239 0.0964355V188.711" stroke="black" stroke-opacity="0.5"/>
<path d="M60.9806 0.0964355V188.711" stroke="black" stroke-opacity="0.5"/>
<path d="M67.7222 0.0964355V188.711" stroke="black" stroke-opacity="0.5"/>
<path d="M74.4637 0.0964355V188.711" stroke="black" stroke-opacity="0.5"/>
<path d="M81.2053 0.0964355V188.711" stroke="black" stroke-opacity="0.5"/>
<path d="M87.9469 0.0964355V188.711" stroke="black" stroke-opacity="0.5"/>
<path d="M94.6885 0.0964355V188.711" stroke="black" stroke-opacity="0.5"/>
<path d="M101.43 0.0964355V188.711" stroke="black" stroke-opacity="0.5"/>
<path d="M108.172 0.0964355V188.711" stroke="black" stroke-opacity="0.5"/>
<path d="M114.913 0.0964355V188.711" stroke="black" stroke-opacity="0.5"/>
<path d="M121.655 0.0964355V188.711" stroke="black" stroke-opacity="0.5"/>
<path d="M128.396 0.0964355V188.711" stroke="black" stroke-opacity="0.5"/>
<path d="M135.138 0.0964355V188.711" stroke="black" stroke-opacity="0.5"/>
<path d="M141.879 0.0964355V188.711" stroke="black" stroke-opacity="0.5"/>
<path d="M148.621 0.0964355V188.711" stroke="black" stroke-opacity="0.5"/>
<path d="M155.363 0.0964355V188.711" stroke="black" stroke-opacity="0.5"/>
<path d="M162.104 0.0964355V188.711" stroke="black" stroke-opacity="0.5"/>
<path d="M168.846 0.0964355V188.711" stroke="black" stroke-opacity="0.5"/>
<path d="M175.587 0.0964355V188.711" stroke="black" stroke-opacity="0.5"/>
<path d="M182.329 0.0964355V188.711" stroke="black" stroke-opacity="0.5"/>
<path d="M189.07 0.0964355V188.711" stroke="black" stroke-opacity="0.5"/>
<path d="M195.812 0.0964355V188.711" stroke="black" stroke-opacity="0.5"/>
<path d="M202.554 0.0964355V188.711" stroke="black" stroke-opacity="0.5"/>
<path d="M209.295 0.0964355V188.711" stroke="black" stroke-opacity="0.5"/>
<path d="M216.037 0.0964355V188.711" stroke="black" stroke-opacity="0.5"/>
<path d="M222.778 0.0964355V188.711" stroke="black" stroke-opacity="0.5"/>
<path d="M7.048 187.651V336" stroke="black" stroke-opacity="0.5"/>
<path d="M13.7896 187.651V336" stroke="black" stroke-opacity="0.5"/>
<path d="M20.5312 187.651V336" stroke="black" stroke-opacity="0.5"/>
<path d="M27.2727 187.651V336" stroke="black" stroke-opacity="0.5"/>
<path d="M34.0143 187.651V336" stroke="black" stroke-opacity="0.5"/>
<path d="M40.7559 187.651V336" stroke="black" stroke-opacity="0.5"/>
<path d="M47.4974 187.651V336" stroke="black" stroke-opacity="0.5"/>
<path d="M54.239 187.651V336" stroke="black" stroke-opacity="0.5"/>
<path d="M60.9806 187.651V336" stroke="black" stroke-opacity="0.5"/>
<path d="M67.7222 187.651V336" stroke="black" stroke-opacity="0.5"/>
<path d="M74.4637 187.651V336" stroke="black" stroke-opacity="0.5"/>
<path d="M81.2053 187.651V336" stroke="black" stroke-opacity="0.5"/>
<path d="M87.9469 187.651V336" stroke="black" stroke-opacity="0.5"/>
<path d="M94.6885 187.651V336" stroke="black" stroke-opacity="0.5"/>
<path d="M101.43 187.651V336" stroke="black" stroke-opacity="0.5"/>
<path d="M108.172 187.651V336" stroke="black" stroke-opacity="0.5"/>
<path d="M114.913 187.651V336" stroke="black" stroke-opacity="0.5"/>
<path d="M121.655 187.651V336" stroke="black" stroke-opacity="0.5"/>
<path d="M128.396 187.651V336" stroke="black" stroke-opacity="0.5"/>
<path d="M135.138 187.651V336" stroke="black" stroke-opacity="0.5"/>
<path d="M141.879 187.651V336" stroke="black" stroke-opacity="0.5"/>
<path d="M148.621 187.651V336" stroke="black" stroke-opacity="0.5"/>
<path d="M155.363 187.651V336" stroke="black" stroke-opacity="0.5"/>
<path d="M162.104 187.651V336" stroke="black" stroke-opacity="0.5"/>
<path d="M168.846 187.651V336" stroke="black" stroke-opacity="0.5"/>
<path d="M175.587 187.651V336" stroke="black" stroke-opacity="0.5"/>
<path d="M182.329 187.651V336" stroke="black" stroke-opacity="0.5"/>
<path d="M189.07 187.651V336" stroke="black" stroke-opacity="0.5"/>
<path d="M195.812 187.651V336" stroke="black" stroke-opacity="0.5"/>
<path d="M202.554 187.651V336" stroke="black" stroke-opacity="0.5"/>
<path d="M209.295 187.651V336" stroke="black" stroke-opacity="0.5"/>
<path d="M216.037 187.651V336" stroke="black" stroke-opacity="0.5"/>
<path d="M222.778 187.651V336" stroke="black" stroke-opacity="0.5"/>
<path d="M222.778 0V188.615" stroke="black" stroke-opacity="0.5"/>
<path d="M229.52 0V188.615" stroke="black" stroke-opacity="0.5"/>
<path d="M236.261 0V188.615" stroke="black" stroke-opacity="0.5"/>
<path d="M243.003 0V188.615" stroke="black" stroke-opacity="0.5"/>
<path d="M249.745 0V188.615" stroke="black" stroke-opacity="0.5"/>
<path d="M256.486 0V188.615" stroke="black" stroke-opacity="0.5"/>
<path d="M263.228 0V188.615" stroke="black" stroke-opacity="0.5"/>
<path d="M269.969 0V188.615" stroke="black" stroke-opacity="0.5"/>
<path d="M276.711 0V188.615" stroke="black" stroke-opacity="0.5"/>
<path d="M283.453 0V188.615" stroke="black" stroke-opacity="0.5"/>
<path d="M290.194 0V188.615" stroke="black" stroke-opacity="0.5"/>
<path d="M296.936 0V188.615" stroke="black" stroke-opacity="0.5"/>
<path d="M303.677 0V188.615" stroke="black" stroke-opacity="0.5"/>
<path d="M310.419 0V188.615" stroke="black" stroke-opacity="0.5"/>
<path d="M317.16 0V188.615" stroke="black" stroke-opacity="0.5"/>
<path d="M323.902 0V188.615" stroke="black" stroke-opacity="0.5"/>
<path d="M330.643 0V188.615" stroke="black" stroke-opacity="0.5"/>
<path d="M337.385 0V188.615" stroke="black" stroke-opacity="0.5"/>
<path d="M344.127 0V188.615" stroke="black" stroke-opacity="0.5"/>
<path d="M350.868 0V188.615" stroke="black" stroke-opacity="0.5"/>
<path d="M357.61 0V188.615" stroke="black" stroke-opacity="0.5"/>
<path d="M222.778 187.651V336" stroke="black" stroke-opacity="0.5"/>
<path d="M229.52 187.651V336" stroke="black" stroke-opacity="0.5"/>
<path d="M236.261 187.651V336" stroke="black" stroke-opacity="0.5"/>
<path d="M243.003 187.651V336" stroke="black" stroke-opacity="0.5"/>
<path d="M249.745 187.651V336" stroke="black" stroke-opacity="0.5"/>
<path d="M256.486 187.651V336" stroke="black" stroke-opacity="0.5"/>
<path d="M263.228 187.651V336" stroke="black" stroke-opacity="0.5"/>
<path d="M269.969 187.651V336" stroke="black" stroke-opacity="0.5"/>
<path d="M276.711 187.651V336" stroke="black" stroke-opacity="0.5"/>
<path d="M283.453 187.651V336" stroke="black" stroke-opacity="0.5"/>
<path d="M290.194 187.651V336" stroke="black" stroke-opacity="0.5"/>
<path d="M296.936 187.651V336" stroke="black" stroke-opacity="0.5"/>
<path d="M303.677 187.651V336" stroke="black" stroke-opacity="0.5"/>
<path d="M310.419 187.651V336" stroke="black" stroke-opacity="0.5"/>
<path d="M317.16 187.651V336" stroke="black" stroke-opacity="0.5"/>
<path d="M323.902 187.651V336" stroke="black" stroke-opacity="0.5"/>
<path d="M330.643 187.651V336" stroke="black" stroke-opacity="0.5"/>
<path d="M337.385 187.651V336" stroke="black" stroke-opacity="0.5"/>
<path d="M344.127 187.651V336" stroke="black" stroke-opacity="0.5"/>
<path d="M350.868 187.651V336" stroke="black" stroke-opacity="0.5"/>
<path d="M357.61 187.651V336" stroke="black" stroke-opacity="0.5"/>
<path d="M0 304.115H120" stroke="black" stroke-opacity="0.5"/>
<path d="M0 293.518H120" stroke="black" stroke-opacity="0.5"/>
<path d="M0 282.922H120" stroke="black" stroke-opacity="0.5"/>
<path d="M0 272.326H120" stroke="black" stroke-opacity="0.5"/>
<path d="M0 261.729H120" stroke="black" stroke-opacity="0.5"/>
<path d="M0 251.133H120" stroke="black" stroke-opacity="0.5"/>
<path d="M0 240.537H120" stroke="black" stroke-opacity="0.5"/>
<path d="M0 229.94H120" stroke="black" stroke-opacity="0.5"/>
<path d="M0 219.344H120" stroke="black" stroke-opacity="0.5"/>
<path d="M0 208.748H120" stroke="black" stroke-opacity="0.5"/>
<path d="M0 198.151H120" stroke="black" stroke-opacity="0.5"/>
<path d="M0 187.555H120" stroke="black" stroke-opacity="0.5"/>
<path d="M0 176.959H120" stroke="black" stroke-opacity="0.5"/>
<path d="M0 166.362H120" stroke="black" stroke-opacity="0.5"/>
<path d="M0 155.766H120" stroke="black" stroke-opacity="0.5"/>
<path d="M0 145.17H120" stroke="black" stroke-opacity="0.5"/>
<path d="M0 134.573H120" stroke="black" stroke-opacity="0.5"/>
<path d="M0 123.977H120" stroke="black" stroke-opacity="0.5"/>
<path d="M0 113.381H120" stroke="black" stroke-opacity="0.5"/>
<path d="M0 102.784H120" stroke="black" stroke-opacity="0.5"/>
<path d="M0 92.188H120" stroke="black" stroke-opacity="0.5"/>
<path d="M0 81.5918H120" stroke="black" stroke-opacity="0.5"/>
<path d="M0 70.9954H120" stroke="black" stroke-opacity="0.5"/>
<path d="M0 60.3992H120" stroke="black" stroke-opacity="0.5"/>
<path d="M0 49.8027H120" stroke="black" stroke-opacity="0.5"/>
<path d="M0 39.2065H120" stroke="black" stroke-opacity="0.5"/>
<path d="M0 28.6101H120" stroke="black" stroke-opacity="0.5"/>
<path d="M0 18.0138L120 18.0137" stroke="black" stroke-opacity="0.5"/>
<path d="M0 7.41758L120 7.41748" stroke="black" stroke-opacity="0.5"/>
<path d="M120 304.115H240" stroke="black" stroke-opacity="0.5"/>
<path d="M120 293.518H240" stroke="black" stroke-opacity="0.5"/>
<path d="M120 282.922H240" stroke="black" stroke-opacity="0.5"/>
<path d="M120 272.326H240" stroke="black" stroke-opacity="0.5"/>
<path d="M120 261.729H240" stroke="black" stroke-opacity="0.5"/>
<path d="M120 251.133H240" stroke="black" stroke-opacity="0.5"/>
<path d="M120 240.537H240" stroke="black" stroke-opacity="0.5"/>
<path d="M120 229.94H240" stroke="black" stroke-opacity="0.5"/>
<path d="M120 219.344H240" stroke="black" stroke-opacity="0.5"/>
<path d="M120 208.748H240" stroke="black" stroke-opacity="0.5"/>
<path d="M120 198.151H240" stroke="black" stroke-opacity="0.5"/>
<path d="M120 187.555H240" stroke="black" stroke-opacity="0.5"/>
<path d="M120 176.959H240" stroke="black" stroke-opacity="0.5"/>
<path d="M120 166.362H240" stroke="black" stroke-opacity="0.5"/>
<path d="M120 155.766H240" stroke="black" stroke-opacity="0.5"/>
<path d="M120 145.17H240" stroke="black" stroke-opacity="0.5"/>
<path d="M120 134.573H240" stroke="black" stroke-opacity="0.5"/>
<path d="M120 123.977H240" stroke="black" stroke-opacity="0.5"/>
<path d="M120 113.381H240" stroke="black" stroke-opacity="0.5"/>
<path d="M120 102.784H240" stroke="black" stroke-opacity="0.5"/>
<path d="M120 92.188H240" stroke="black" stroke-opacity="0.5"/>
<path d="M120 81.5918H240" stroke="black" stroke-opacity="0.5"/>
<path d="M120 70.9954H240" stroke="black" stroke-opacity="0.5"/>
<path d="M120 60.3992H240" stroke="black" stroke-opacity="0.5"/>
<path d="M120 49.8027H240" stroke="black" stroke-opacity="0.5"/>
<path d="M120 39.2065H240" stroke="black" stroke-opacity="0.5"/>
<path d="M120 28.6101H240" stroke="black" stroke-opacity="0.5"/>
<path d="M120 18.0138L240 18.0137" stroke="black" stroke-opacity="0.5"/>
<path d="M120 7.41758L240 7.41748" stroke="black" stroke-opacity="0.5"/>
<path d="M240 304.115H360" stroke="black" stroke-opacity="0.5"/>
<path d="M240 293.518H360" stroke="black" stroke-opacity="0.5"/>
<path d="M240 282.922H360" stroke="black" stroke-opacity="0.5"/>
<path d="M240 272.326H360" stroke="black" stroke-opacity="0.5"/>
<path d="M240 261.729H360" stroke="black" stroke-opacity="0.5"/>
<path d="M240 251.133H360" stroke="black" stroke-opacity="0.5"/>
<path d="M240 240.537H360" stroke="black" stroke-opacity="0.5"/>
<path d="M240 229.94H360" stroke="black" stroke-opacity="0.5"/>
<path d="M240 219.344H360" stroke="black" stroke-opacity="0.5"/>
<path d="M240 208.748H360" stroke="black" stroke-opacity="0.5"/>
<path d="M240 198.151H360" stroke="black" stroke-opacity="0.5"/>
<path d="M240 187.555H360" stroke="black" stroke-opacity="0.5"/>
<path d="M240 176.959H360" stroke="black" stroke-opacity="0.5"/>
<path d="M240 166.362H360" stroke="black" stroke-opacity="0.5"/>
<path d="M240 155.766H360" stroke="black" stroke-opacity="0.5"/>
<path d="M240 145.17H360" stroke="black" stroke-opacity="0.5"/>
<path d="M240 134.573H360" stroke="black" stroke-opacity="0.5"/>
<path d="M240 123.977H360" stroke="black" stroke-opacity="0.5"/>
<path d="M240 113.381H360" stroke="black" stroke-opacity="0.5"/>
<path d="M240 102.784H360" stroke="black" stroke-opacity="0.5"/>
<path d="M240 92.188H360" stroke="black" stroke-opacity="0.5"/>
<path d="M240 81.5918H360" stroke="black" stroke-opacity="0.5"/>
<path d="M240 70.9954H360" stroke="black" stroke-opacity="0.5"/>
<path d="M240 60.3992H360" stroke="black" stroke-opacity="0.5"/>
<path d="M240 49.8027H360" stroke="black" stroke-opacity="0.5"/>
<path d="M240 39.2065H360" stroke="black" stroke-opacity="0.5"/>
<path d="M240 28.6101H360" stroke="black" stroke-opacity="0.5"/>
<path d="M240 18.0138L360 18.0137" stroke="black" stroke-opacity="0.5"/>
<path d="M240 7.41758L360 7.41748" stroke="black" stroke-opacity="0.5"/>
</g>
<path d="M6.98672 16.7615V19.0734" stroke="black" stroke-opacity="0.15" stroke-width="2"/>
<path d="M7.77471 17.9175H6.25129" stroke="black" stroke-opacity="0.15" stroke-width="2"/>
<path d="M6.98672 59.1467V61.4587" stroke="black" stroke-opacity="0.15" stroke-width="2"/>
<path d="M7.77471 60.3027H6.25129" stroke="black" stroke-opacity="0.15" stroke-width="2"/>
<path d="M6.98672 101.532V103.844" stroke="black" stroke-opacity="0.15" stroke-width="2"/>
<path d="M7.77471 102.688H6.25129" stroke="black" stroke-opacity="0.15" stroke-width="2"/>
<path d="M6.98672 143.917V146.229" stroke="black" stroke-opacity="0.15" stroke-width="2"/>
<path d="M7.77471 145.073H6.25129" stroke="black" stroke-opacity="0.15" stroke-width="2"/>
<path d="M6.98672 186.303V188.615" stroke="black" stroke-opacity="0.15" stroke-width="2"/>
<path d="M7.77471 187.459H6.25129" stroke="black" stroke-opacity="0.15" stroke-width="2"/>
<path d="M6.98672 228.688V231" stroke="black" stroke-opacity="0.15" stroke-width="2"/>
<path d="M7.77471 229.844H6.25129" stroke="black" stroke-opacity="0.15" stroke-width="2"/>
<path d="M6.98672 271.073V273.385" stroke="black" stroke-opacity="0.15" stroke-width="2"/>
<path d="M7.77471 272.229H6.25129" stroke="black" stroke-opacity="0.15" stroke-width="2"/>
<path d="M33.953 16.7615V19.0734" stroke="black" stroke-opacity="0.15" stroke-width="2"/>
<path d="M34.741 17.9175H33.2176" stroke="black" stroke-opacity="0.15" stroke-width="2"/>
<path d="M33.953 59.1467V61.4587" stroke="black" stroke-opacity="0.15" stroke-width="2"/>
<path d="M34.741 60.3027H33.2176" stroke="black" stroke-opacity="0.15" stroke-width="2"/>
<path d="M33.953 101.532V103.844" stroke="black" stroke-opacity="0.15" stroke-width="2"/>
<path d="M34.741 102.688H33.2176" stroke="black" stroke-opacity="0.15" stroke-width="2"/>
<path d="M33.953 143.917V146.229" stroke="black" stroke-opacity="0.15" stroke-width="2"/>
<path d="M34.741 145.073H33.2176" stroke="black" stroke-opacity="0.15" stroke-width="2"/>
<path d="M33.953 186.303V188.615" stroke="black" stroke-opacity="0.15" stroke-width="2"/>
<path d="M34.741 187.459H33.2176" stroke="black" stroke-opacity="0.15" stroke-width="2"/>
<path d="M33.953 228.688V231" stroke="black" stroke-opacity="0.15" stroke-width="2"/>
<path d="M34.741 229.844H33.2176" stroke="black" stroke-opacity="0.15" stroke-width="2"/>
<path d="M33.953 271.073V273.385" stroke="black" stroke-opacity="0.15" stroke-width="2"/>
<path d="M34.741 272.229H33.2176" stroke="black" stroke-opacity="0.15" stroke-width="2"/>
<path d="M60.9193 16.7615V19.0734" stroke="black" stroke-opacity="0.15" stroke-width="2"/>
<path d="M61.7073 17.9175H60.1839" stroke="black" stroke-opacity="0.15" stroke-width="2"/>
<path d="M60.9193 59.1467V61.4587" stroke="black" stroke-opacity="0.15" stroke-width="2"/>
<path d="M61.7073 60.3027H60.1839" stroke="black" stroke-opacity="0.15" stroke-width="2"/>
<path d="M60.9193 101.532V103.844" stroke="black" stroke-opacity="0.15" stroke-width="2"/>
<path d="M61.7073 102.688H60.1839" stroke="black" stroke-opacity="0.15" stroke-width="2"/>
<path d="M60.9193 143.917V146.229" stroke="black" stroke-opacity="0.15" stroke-width="2"/>
<path d="M61.7073 145.073H60.1839" stroke="black" stroke-opacity="0.15" stroke-width="2"/>
<path d="M60.9193 186.303V188.615" stroke="black" stroke-opacity="0.15" stroke-width="2"/>
<path d="M61.7073 187.459H60.1839" stroke="black" stroke-opacity="0.15" stroke-width="2"/>
<path d="M60.9193 228.688V231" stroke="black" stroke-opacity="0.15" stroke-width="2"/>
<path d="M61.7073 229.844H60.1839" stroke="black" stroke-opacity="0.15" stroke-width="2"/>
<path d="M60.9193 271.073V273.385" stroke="black" stroke-opacity="0.15" stroke-width="2"/>
<path d="M61.7073 272.229H60.1839" stroke="black" stroke-opacity="0.15" stroke-width="2"/>
<path d="M87.8856 16.7615V19.0734" stroke="black" stroke-opacity="0.15" stroke-width="2"/>
<path d="M88.6736 17.9175H87.1502" stroke="black" stroke-opacity="0.15" stroke-width="2"/>
<path d="M87.8856 59.1467V61.4587" stroke="black" stroke-opacity="0.15" stroke-width="2"/>
<path d="M88.6736 60.3027H87.1502" stroke="black" stroke-opacity="0.15" stroke-width="2"/>
<path d="M87.8856 101.532V103.844" stroke="black" stroke-opacity="0.15" stroke-width="2"/>
<path d="M88.6736 102.688H87.1502" stroke="black" stroke-opacity="0.15" stroke-width="2"/>
<path d="M87.8856 143.917V146.229" stroke="black" stroke-opacity="0.15" stroke-width="2"/>
<path d="M88.6736 145.073H87.1502" stroke="black" stroke-opacity="0.15" stroke-width="2"/>
<path d="M87.8856 186.303V188.615" stroke="black" stroke-opacity="0.15" stroke-width="2"/>
<path d="M88.6736 187.459H87.1502" stroke="black" stroke-opacity="0.15" stroke-width="2"/>
<path d="M87.8856 228.688V231" stroke="black" stroke-opacity="0.15" stroke-width="2"/>
<path d="M88.6736 229.844H87.1502" stroke="black" stroke-opacity="0.15" stroke-width="2"/>
<path d="M87.8856 271.073V273.385" stroke="black" stroke-opacity="0.15" stroke-width="2"/>
<path d="M88.6736 272.229H87.1502" stroke="black" stroke-opacity="0.15" stroke-width="2"/>
<path d="M114.852 16.7615V19.0734" stroke="black" stroke-opacity="0.15" stroke-width="2"/>
<path d="M115.64 17.9175H114.116" stroke="black" stroke-opacity="0.15" stroke-width="2"/>
<path d="M114.852 59.1467V61.4587" stroke="black" stroke-opacity="0.15" stroke-width="2"/>
<path d="M115.64 60.3027H114.116" stroke="black" stroke-opacity="0.15" stroke-width="2"/>
<path d="M114.852 101.532V103.844" stroke="black" stroke-opacity="0.15" stroke-width="2"/>
<path d="M115.64 102.688H114.116" stroke="black" stroke-opacity="0.15" stroke-width="2"/>
<path d="M114.852 143.917V146.229" stroke="black" stroke-opacity="0.15" stroke-width="2"/>
<path d="M115.64 145.073H114.116" stroke="black" stroke-opacity="0.15" stroke-width="2"/>
<path d="M114.852 186.303V188.615" stroke="black" stroke-opacity="0.15" stroke-width="2"/>
<path d="M115.64 187.459H114.116" stroke="black" stroke-opacity="0.15" stroke-width="2"/>
<path d="M114.852 228.688V231" stroke="black" stroke-opacity="0.15" stroke-width="2"/>
<path d="M115.64 229.844H114.116" stroke="black" stroke-opacity="0.15" stroke-width="2"/>
<path d="M114.852 271.073V273.385" stroke="black" stroke-opacity="0.15" stroke-width="2"/>
<path d="M115.64 272.229H114.116" stroke="black" stroke-opacity="0.15" stroke-width="2"/>
<path d="M141.818 16.7615V19.0734" stroke="black" stroke-opacity="0.15" stroke-width="2"/>
<path d="M142.606 17.9175H141.083" stroke="black" stroke-opacity="0.15" stroke-width="2"/>
<path d="M141.818 59.1467V61.4587" stroke="black" stroke-opacity="0.15" stroke-width="2"/>
<path d="M142.606 60.3027H141.083" stroke="black" stroke-opacity="0.15" stroke-width="2"/>
<path d="M141.818 101.532V103.844" stroke="black" stroke-opacity="0.15" stroke-width="2"/>
<path d="M142.606 102.688H141.083" stroke="black" stroke-opacity="0.15" stroke-width="2"/>
<path d="M141.818 143.917V146.229" stroke="black" stroke-opacity="0.15" stroke-width="2"/>
<path d="M142.606 145.073H141.083" stroke="black" stroke-opacity="0.15" stroke-width="2"/>
<path d="M141.818 186.303V188.615" stroke="black" stroke-opacity="0.15" stroke-width="2"/>
<path d="M142.606 187.459H141.083" stroke="black" stroke-opacity="0.15" stroke-width="2"/>
<path d="M141.818 228.688V231" stroke="black" stroke-opacity="0.15" stroke-width="2"/>
<path d="M142.606 229.844H141.083" stroke="black" stroke-opacity="0.15" stroke-width="2"/>
<path d="M141.818 271.073V273.385" stroke="black" stroke-opacity="0.15" stroke-width="2"/>
<path d="M142.606 272.229H141.083" stroke="black" stroke-opacity="0.15" stroke-width="2"/>
<path d="M168.784 16.7615V19.0734" stroke="black" stroke-opacity="0.15" stroke-width="2"/>
<path d="M169.573 17.9175H168.049" stroke="black" stroke-opacity="0.15" stroke-width="2"/>
<path d="M168.784 59.1467V61.4587" stroke="black" stroke-opacity="0.15" stroke-width="2"/>
<path d="M169.573 60.3027H168.049" stroke="black" stroke-opacity="0.15" stroke-width="2"/>
<path d="M168.784 101.532V103.844" stroke="black" stroke-opacity="0.15" stroke-width="2"/>
<path d="M169.573 102.688H168.049" stroke="black" stroke-opacity="0.15" stroke-width="2"/>
<path d="M168.784 143.917V146.229" stroke="black" stroke-opacity="0.15" stroke-width="2"/>
<path d="M169.573 145.073H168.049" stroke="black" stroke-opacity="0.15" stroke-width="2"/>
<path d="M168.784 186.303V188.615" stroke="black" stroke-opacity="0.15" stroke-width="2"/>
<path d="M169.573 187.459H168.049" stroke="black" stroke-opacity="0.15" stroke-width="2"/>
<path d="M168.784 228.688V231" stroke="black" stroke-opacity="0.15" stroke-width="2"/>
<path d="M169.573 229.844H168.049" stroke="black" stroke-opacity="0.15" stroke-width="2"/>
<path d="M168.784 271.073V273.385" stroke="black" stroke-opacity="0.15" stroke-width="2"/>
<path d="M169.573 272.229H168.049" stroke="black" stroke-opacity="0.15" stroke-width="2"/>
<path d="M195.751 16.7615V19.0734" stroke="black" stroke-opacity="0.15" stroke-width="2"/>
<path d="M196.539 17.9175H195.015" stroke="black" stroke-opacity="0.15" stroke-width="2"/>
<path d="M195.751 59.1467V61.4587" stroke="black" stroke-opacity="0.15" stroke-width="2"/>
<path d="M196.539 60.3027H195.015" stroke="black" stroke-opacity="0.15" stroke-width="2"/>
<path d="M195.751 101.532V103.844" stroke="black" stroke-opacity="0.15" stroke-width="2"/>
<path d="M196.539 102.688H195.015" stroke="black" stroke-opacity="0.15" stroke-width="2"/>
<path d="M195.751 143.917V146.229" stroke="black" stroke-opacity="0.15" stroke-width="2"/>
<path d="M196.539 145.073H195.015" stroke="black" stroke-opacity="0.15" stroke-width="2"/>
<path d="M195.751 186.303V188.615" stroke="black" stroke-opacity="0.15" stroke-width="2"/>
<path d="M196.539 187.459H195.015" stroke="black" stroke-opacity="0.15" stroke-width="2"/>
<path d="M195.751 228.688V231" stroke="black" stroke-opacity="0.15" stroke-width="2"/>
<path d="M196.539 229.844H195.015" stroke="black" stroke-opacity="0.15" stroke-width="2"/>
<path d="M195.751 271.073V273.385" stroke="black" stroke-opacity="0.15" stroke-width="2"/>
<path d="M196.539 272.229H195.015" stroke="black" stroke-opacity="0.15" stroke-width="2"/>
<path d="M222.717 16.7615V19.0734" stroke="black" stroke-opacity="0.15" stroke-width="2"/>
<path d="M223.505 17.9175H221.982" stroke="black" stroke-opacity="0.15" stroke-width="2"/>
<path d="M222.717 59.1467V61.4587" stroke="black" stroke-opacity="0.15" stroke-width="2"/>
<path d="M223.505 60.3027H221.982" stroke="black" stroke-opacity="0.15" stroke-width="2"/>
<path d="M222.717 101.532V103.844" stroke="black" stroke-opacity="0.15" stroke-width="2"/>
<path d="M223.505 102.688H221.982" stroke="black" stroke-opacity="0.15" stroke-width="2"/>
<path d="M222.717 143.917V146.229" stroke="black" stroke-opacity="0.15" stroke-width="2"/>
<path d="M223.505 145.073H221.982" stroke="black" stroke-opacity="0.15" stroke-width="2"/>
<path d="M222.717 186.303V188.615" stroke="black" stroke-opacity="0.15" stroke-width="2"/>
<path d="M223.505 187.459H221.982" stroke="black" stroke-opacity="0.15" stroke-width="2"/>
<path d="M222.717 228.688V231" stroke="black" stroke-opacity="0.15" stroke-width="2"/>
<path d="M223.505 229.844H221.982" stroke="black" stroke-opacity="0.15" stroke-width="2"/>
<path d="M222.717 271.073V273.385" stroke="black" stroke-opacity="0.15" stroke-width="2"/>
<path d="M223.505 272.229H221.982" stroke="black" stroke-opacity="0.15" stroke-width="2"/>
<path d="M249.683 16.7615V19.0734" stroke="black" stroke-opacity="0.15" stroke-width="2"/>
<path d="M250.472 17.9175H248.948" stroke="black" stroke-opacity="0.15" stroke-width="2"/>
<path d="M249.683 59.1467V61.4587" stroke="black" stroke-opacity="0.15" stroke-width="2"/>
<path d="M250.472 60.3027H248.948" stroke="black" stroke-opacity="0.15" stroke-width="2"/>
<path d="M249.683 101.532V103.844" stroke="black" stroke-opacity="0.15" stroke-width="2"/>
<path d="M250.472 102.688H248.948" stroke="black" stroke-opacity="0.15" stroke-width="2"/>
<path d="M249.683 143.917V146.229" stroke="black" stroke-opacity="0.15" stroke-width="2"/>
<path d="M250.472 145.073H248.948" stroke="black" stroke-opacity="0.15" stroke-width="2"/>
<path d="M249.683 186.303V188.615" stroke="black" stroke-opacity="0.15" stroke-width="2"/>
<path d="M250.472 187.459H248.948" stroke="black" stroke-opacity="0.15" stroke-width="2"/>
<path d="M249.683 228.688V231" stroke="black" stroke-opacity="0.15" stroke-width="2"/>
<path d="M250.472 229.844H248.948" stroke="black" stroke-opacity="0.15" stroke-width="2"/>
<path d="M249.683 271.073V273.385" stroke="black" stroke-opacity="0.15" stroke-width="2"/>
<path d="M250.472 272.229H248.948" stroke="black" stroke-opacity="0.15" stroke-width="2"/>
<path d="M276.65 16.7615V19.0734" stroke="black" stroke-opacity="0.15" stroke-width="2"/>
<path d="M277.438 17.9175H275.914" stroke="black" stroke-opacity="0.15" stroke-width="2"/>
<path d="M276.65 59.1467V61.4587" stroke="black" stroke-opacity="0.15" stroke-width="2"/>
<path d="M277.438 60.3027H275.914" stroke="black" stroke-opacity="0.15" stroke-width="2"/>
<path d="M276.65 101.532V103.844" stroke="black" stroke-opacity="0.15" stroke-width="2"/>
<path d="M277.438 102.688H275.914" stroke="black" stroke-opacity="0.15" stroke-width="2"/>
<path d="M276.65 143.917V146.229" stroke="black" stroke-opacity="0.15" stroke-width="2"/>
<path d="M277.438 145.073H275.914" stroke="black" stroke-opacity="0.15" stroke-width="2"/>
<path d="M276.65 186.303V188.615" stroke="black" stroke-opacity="0.15" stroke-width="2"/>
<path d="M277.438 187.459H275.914" stroke="black" stroke-opacity="0.15" stroke-width="2"/>
<path d="M276.65 228.688V231" stroke="black" stroke-opacity="0.15" stroke-width="2"/>
<path d="M277.438 229.844H275.914" stroke="black" stroke-opacity="0.15" stroke-width="2"/>
<path d="M276.65 271.073V273.385" stroke="black" stroke-opacity="0.15" stroke-width="2"/>
<path d="M277.438 272.229H275.914" stroke="black" stroke-opacity="0.15" stroke-width="2"/>
<path d="M303.616 16.7615V19.0734" stroke="black" stroke-opacity="0.15" stroke-width="2"/>
<path d="M304.404 17.9175H302.88" stroke="black" stroke-opacity="0.15" stroke-width="2"/>
<path d="M303.616 59.1467V61.4587" stroke="black" stroke-opacity="0.15" stroke-width="2"/>
<path d="M304.404 60.3027H302.88" stroke="black" stroke-opacity="0.15" stroke-width="2"/>
<path d="M303.616 101.532V103.844" stroke="black" stroke-opacity="0.15" stroke-width="2"/>
<path d="M304.404 102.688H302.88" stroke="black" stroke-opacity="0.15" stroke-width="2"/>
<path d="M303.616 143.917V146.229" stroke="black" stroke-opacity="0.15" stroke-width="2"/>
<path d="M304.404 145.073H302.88" stroke="black" stroke-opacity="0.15" stroke-width="2"/>
<path d="M303.616 186.303V188.615" stroke="black" stroke-opacity="0.15" stroke-width="2"/>
<path d="M304.404 187.459H302.88" stroke="black" stroke-opacity="0.15" stroke-width="2"/>
<path d="M303.616 228.688V231" stroke="black" stroke-opacity="0.15" stroke-width="2"/>
<path d="M304.404 229.844H302.88" stroke="black" stroke-opacity="0.15" stroke-width="2"/>
<path d="M303.616 271.073V273.385" stroke="black" stroke-opacity="0.15" stroke-width="2"/>
<path d="M304.404 272.229H302.88" stroke="black" stroke-opacity="0.15" stroke-width="2"/>
<path d="M330.582 16.7615V19.0734" stroke="black" stroke-opacity="0.15" stroke-width="2"/>
<path d="M331.37 17.9175H329.847" stroke="black" stroke-opacity="0.15" stroke-width="2"/>
<path d="M330.582 59.1467V61.4587" stroke="black" stroke-opacity="0.15" stroke-width="2"/>
<path d="M331.37 60.3027H329.847" stroke="black" stroke-opacity="0.15" stroke-width="2"/>
<path d="M330.582 101.532V103.844" stroke="black" stroke-opacity="0.15" stroke-width="2"/>
<path d="M331.37 102.688H329.847" stroke="black" stroke-opacity="0.15" stroke-width="2"/>
<path d="M330.582 143.917V146.229" stroke="black" stroke-opacity="0.15" stroke-width="2"/>
<path d="M331.37 145.073H329.847" stroke="black" stroke-opacity="0.15" stroke-width="2"/>
<path d="M330.582 186.303V188.615" stroke="black" stroke-opacity="0.15" stroke-width="2"/>
<path d="M331.37 187.459H329.847" stroke="black" stroke-opacity="0.15" stroke-width="2"/>
<path d="M330.582 228.688V231" stroke="black" stroke-opacity="0.15" stroke-width="2"/>
<path d="M331.37 229.844H329.847" stroke="black" stroke-opacity="0.15" stroke-width="2"/>
<path d="M330.582 271.073V273.385" stroke="black" stroke-opacity="0.15" stroke-width="2"/>
<path d="M331.37 272.229H329.847" stroke="black" stroke-opacity="0.15" stroke-width="2"/>
<path d="M357.549 16.7615V19.0734" stroke="black" stroke-opacity="0.15" stroke-width="2"/>
<path d="M358.337 17.9175H356.813" stroke="black" stroke-opacity="0.15" stroke-width="2"/>
<path d="M357.549 59.1467V61.4587" stroke="black" stroke-opacity="0.15" stroke-width="2"/>
<path d="M358.337 60.3027H356.813" stroke="black" stroke-opacity="0.15" stroke-width="2"/>
<path d="M357.549 101.532V103.844" stroke="black" stroke-opacity="0.15" stroke-width="2"/>
<path d="M358.337 102.688H356.813" stroke="black" stroke-opacity="0.15" stroke-width="2"/>
<path d="M357.549 143.917V146.229" stroke="black" stroke-opacity="0.15" stroke-width="2"/>
<path d="M358.337 145.073H356.813" stroke="black" stroke-opacity="0.15" stroke-width="2"/>
<path d="M357.549 186.303V188.615" stroke="black" stroke-opacity="0.15" stroke-width="2"/>
<path d="M358.337 187.459H356.813" stroke="black" stroke-opacity="0.15" stroke-width="2"/>
<path d="M357.549 228.688V231" stroke="black" stroke-opacity="0.15" stroke-width="2"/>
<path d="M358.337 229.844H356.813" stroke="black" stroke-opacity="0.15" stroke-width="2"/>
<path d="M357.549 271.073V273.385" stroke="black" stroke-opacity="0.15" stroke-width="2"/>
<path d="M358.337 272.229H356.813" stroke="black" stroke-opacity="0.15" stroke-width="2"/>
</g>
<defs>
<clipPath id="clip0_2029_1834">
<rect width="360" height="336" fill="white"/>
</clipPath>
</defs>
</svg>
