<svg width="64" height="64" viewBox="0 0 64 64" fill="none" xmlns="http://www.w3.org/2000/svg">
<rect width="64" height="64" rx="6" fill="white"/>
<path d="M42.6667 21.3333C46.9101 21.3333 50.9798 23.019 53.9804 26.0195C56.981 29.0201 58.6667 33.0898 58.6667 37.3333V55.9999H48V37.3333C48 35.9188 47.4381 34.5622 46.4379 33.562C45.4377 32.5618 44.0812 31.9999 42.6667 31.9999C41.2522 31.9999 39.8956 32.5618 38.8954 33.562C37.8952 34.5622 37.3333 35.9188 37.3333 37.3333V55.9999H26.6667V37.3333C26.6667 33.0898 28.3524 29.0201 31.353 26.0195C34.3535 23.019 38.4232 21.3333 42.6667 21.3333Z" fill="#00A38F"/>
<path d="M16 23.9999H5.33333L5.33333 55.9999H16L16 23.9999Z" fill="#00A38F"/>
<path d="M10.6667 15.9999C13.6122 15.9999 16 13.6121 16 10.6666C16 7.72107 13.6122 5.33325 10.6667 5.33325C7.72115 5.33325 5.33333 7.72107 5.33333 10.6666C5.33333 13.6121 7.72115 15.9999 10.6667 15.9999Z" fill="#00A38F"/>
</svg>
