<svg width="162" height="162" viewBox="0 0 162 162" fill="none" xmlns="http://www.w3.org/2000/svg">
<path d="M156 81C156 122.421 122.421 156 81 156M156 81C156 39.5786 122.421 6 81 6M156 81H6M81 156C39.5786 156 6 122.421 6 81M81 156C99.7596 135.462 110.421 108.81 111 81C110.421 53.1903 99.7596 26.5376 81 6M81 156C62.2404 135.462 51.5794 108.81 51 81C51.5794 53.1903 62.2404 26.5376 81 6M6 81C6 39.5786 39.5786 6 81 6" stroke="#F3F3F3" stroke-width="12" stroke-linecap="round" stroke-linejoin="round"/>
</svg>
